<svg id="attachments2" xmlns="http://www.w3.org/2000/svg" width="17.6" height="17.792" viewBox="0 0 17.6 17.792">
  <g id="Group_67" data-name="Group 67">
    <path id="Path_79" data-name="Path 79" d="M83.474,96.092a4.822,4.822,0,0,1-2.715-.868,4.9,4.9,0,0,1-1.265-7.005,4.522,4.522,0,0,1,.521-.608q3.552-3.515,7.1-7.017L88.3,79.441A3.746,3.746,0,0,1,90.95,78.3a4.022,4.022,0,0,1,1.674.384,3.628,3.628,0,0,1,1.351,5.368,5.147,5.147,0,0,1-.471.546q-4.11,4.073-8.22,8.133a2.491,2.491,0,0,1-1.761.744,2.35,2.35,0,0,1-2.058-1.2,2.3,2.3,0,0,1,.3-2.69c.471-.5.967-.979,1.451-1.451.186-.186.372-.36.558-.546,0,0,4.377-4.339,5.319-5.257l.57.583-1.153,1.141c-2,1.971-3.98,3.943-5.976,5.914A1.588,1.588,0,0,0,82,91.256a1.5,1.5,0,0,0,.917,1.3,1.456,1.456,0,0,0,.632.136,1.508,1.508,0,0,0,.905-.31,2.431,2.431,0,0,0,.26-.223l2.938-2.9c1.748-1.736,3.509-3.472,5.257-5.195a2.915,2.915,0,0,0,.917-2.207,2.84,2.84,0,0,0-2.554-2.715,2.59,2.59,0,0,0-.31-.012A2.879,2.879,0,0,0,88.892,80l-2.021,2c-2.046,2.021-4.166,4.116-6.249,6.187a4.134,4.134,0,0,0,2.244,7.055,4.831,4.831,0,0,0,.719.062A4.211,4.211,0,0,0,86.6,93.984c1.674-1.661,3.36-3.323,5.034-4.984l3.943-3.905h0l.57.583-1.872,1.847c-2.467,2.442-5.021,4.972-7.551,7.439a3.446,3.446,0,0,1-.942.583A5.647,5.647,0,0,1,83.474,96.092Z" transform="translate(-78.545 -78.3)" fill="#d1d1d1"/>
  </g>
</svg>
