<svg id="dashboard" xmlns="http://www.w3.org/2000/svg" width="24.768" height="24.77" viewBox="0 0 24.768 24.77">
  <path id="Path_30" data-name="Path 30" d="M43.843,22.751h-9.8a.954.954,0,0,0-.954.954V38.4a.957.957,0,0,0,.954.954h9.8A.957.957,0,0,0,44.8,38.4V23.7a.954.954,0,0,0-.954-.954Z" transform="translate(-20.029 -14.585)" fill="#d1d1d1"/>
  <path id="Path_31" data-name="Path 31" d="M43.843,5.627h-9.8a.954.954,0,0,0-.954.954v4.9a.956.956,0,0,0,.954.954h9.8a.957.957,0,0,0,.954-.954v-4.9a.954.954,0,0,0-.954-.954Z" transform="translate(-20.029 -5.627)" fill="#d1d1d1"/>
  <path id="Path_32" data-name="Path 32" d="M16.448,36.451H6.654A.954.954,0,0,0,5.7,37.4v8.164a.954.954,0,0,0,.954.954h9.795a.954.954,0,0,0,.954-.954V37.4A.954.954,0,0,0,16.448,36.451Z" transform="translate(-5.7 -21.752)" fill="#d1d1d1"/>
  <path id="Path_33" data-name="Path 33" d="M16.448,5.627H6.654a.95.95,0,0,0-.954.954V17.992a.954.954,0,0,0,.954.954h9.795a.954.954,0,0,0,.954-.954V6.581a.95.95,0,0,0-.954-.954Z" transform="translate(-5.7 -5.627)" fill="#d1d1d1"/>
</svg>
