<svg id="icons_Q2" data-name="icons Q2" xmlns="http://www.w3.org/2000/svg" width="21.678" height="24.692" viewBox="0 0 21.678 24.692">
  <path id="Path_40" data-name="Path 40" d="M26.473,4.245H24.065V3.122A1.165,1.165,0,0,0,22.86,2H10.215a1.165,1.165,0,0,0-1.2,1.122V4.245H7.2A1.165,1.165,0,0,0,6,5.367v20.2a1.165,1.165,0,0,0,1.2,1.122H26.473a1.165,1.165,0,0,0,1.2-1.122V5.367A1.165,1.165,0,0,0,26.473,4.245Zm-8.791,16.5a1.248,1.248,0,0,1-.843.337H12.022a1.165,1.165,0,0,1-1.2-1.122,1.224,1.224,0,0,1,1.2-1.122h4.817a1.165,1.165,0,0,1,1.2,1.122A1.087,1.087,0,0,1,17.682,20.743ZM22.5,16.254a1.248,1.248,0,0,1-.843.337H12.022a1.165,1.165,0,0,1-1.2-1.122,1.224,1.224,0,0,1,1.2-1.122h9.634a1.165,1.165,0,0,1,1.2,1.122A1.087,1.087,0,0,1,22.5,16.254Zm0-4.489a1.248,1.248,0,0,1-.843.337H12.022a1.165,1.165,0,0,1-1.2-1.122,1.224,1.224,0,0,1,1.2-1.122h9.634a1.165,1.165,0,0,1,1.2,1.122,1.087,1.087,0,0,1-.361.786Z" transform="translate(-6 -2)" fill="#d1d1d1"/>
</svg>
