<svg xmlns="http://www.w3.org/2000/svg" width="55.471" height="63.116" viewBox="0 0 55.471 63.116">
  <g id="user" transform="translate(-49.997 -36.1)">
    <g id="Group_130" data-name="Group 130" transform="translate(49.997 36.1)">
      <path id="Path_114" data-name="Path 114" d="M77.649,195.644H52.27c-1.635,0-2.3-.693-2.272-2.327a24.293,24.293,0,0,1,20.032-23.44,25.864,25.864,0,0,1,3.851-.36c2.577-.055,5.126-.028,7.7,0a24.174,24.174,0,0,1,23,17.788,24.685,24.685,0,0,1,.887,6.206,1.885,1.885,0,0,1-2.106,2.133Z" transform="translate(-49.997 -132.528)" fill="#d1d1d1"/>
      <path id="Path_115" data-name="Path 115" d="M123.276,52.724A16.638,16.638,0,1,1,106.652,36.1,16.667,16.667,0,0,1,123.276,52.724Z" transform="translate(-78.916 -36.1)" fill="#d1d1d1"/>
    </g>
  </g>
</svg>
