<svg xmlns="http://www.w3.org/2000/svg" width="26.031" height="24.508" viewBox="0 0 26.031 24.508">
  <path id="Path_116" data-name="Path 116" d="M86.844-21.373v-5.859a2.455,2.455,0,0,0-.553-1.647,1.759,1.759,0,0,0-1.4-.651H62.765a1.76,1.76,0,0,0-1.4.651,2.458,2.458,0,0,0-.553,1.647v5.859a3.268,3.268,0,0,1,2,1.417,4.585,4.585,0,0,1,.8,2.681,4.5,4.5,0,0,1-.8,2.661,3.453,3.453,0,0,1-2,1.436V-7.32a2.456,2.456,0,0,0,.553,1.647,1.757,1.757,0,0,0,1.4.651H84.892a1.756,1.756,0,0,0,1.4-.651,2.452,2.452,0,0,0,.553-1.647v-5.859a3.454,3.454,0,0,1-2-1.436,4.5,4.5,0,0,1-.8-2.661,4.584,4.584,0,0,1,.8-2.681A3.269,3.269,0,0,1,86.844-21.373ZM75.216-8.656a1.859,1.859,0,0,1-1.387.625,1.86,1.86,0,0,1-1.388-.625,2.049,2.049,0,0,1-.595-1.458,2.049,2.049,0,0,1,.595-1.458,1.862,1.862,0,0,1,1.388-.624,1.86,1.86,0,0,1,1.387.624,2.049,2.049,0,0,1,.595,1.458A2.049,2.049,0,0,1,75.216-8.656Zm0-7.162a1.859,1.859,0,0,1-1.387.625,1.86,1.86,0,0,1-1.388-.625,2.048,2.048,0,0,1-.595-1.458,2.047,2.047,0,0,1,.595-1.457,1.86,1.86,0,0,1,1.388-.625,1.859,1.859,0,0,1,1.387.625,2.047,2.047,0,0,1,.595,1.457A2.048,2.048,0,0,1,75.216-15.818Zm0-7.192a1.859,1.859,0,0,1-1.387.625,1.86,1.86,0,0,1-1.388-.625,2.049,2.049,0,0,1-.595-1.458,2.049,2.049,0,0,1,.595-1.458,1.862,1.862,0,0,1,1.388-.624,1.86,1.86,0,0,1,1.387.624,2.049,2.049,0,0,1,.595,1.458A2.049,2.049,0,0,1,75.216-23.01Z" transform="translate(-60.813 29.53)" fill="#d1d1d1"/>
</svg>
