<svg xmlns="http://www.w3.org/2000/svg" width="57.955" height="65.943" viewBox="0 0 57.955 65.943">
  <g id="user" transform="translate(0 0)">
    <g id="Group_100" data-name="Group 100" transform="translate(0 0)">
      <path id="Path_104" data-name="Path 104" d="M78.888,196.816H52.372c-1.708,0-2.4-.724-2.374-2.432a25.381,25.381,0,0,1,20.929-24.49,27.027,27.027,0,0,1,4.024-.376c2.692-.058,5.355-.029,8.047,0A25.257,25.257,0,0,1,107.025,188.1a25.8,25.8,0,0,1,.926,6.484,1.969,1.969,0,0,1-2.2,2.229Z" transform="translate(-49.997 -130.872)" fill="#d1d1d1"/>
      <path id="Path_105" data-name="Path 105" d="M124.766,53.469A17.383,17.383,0,1,1,107.4,36.1,17.413,17.413,0,0,1,124.766,53.469Z" transform="translate(-78.42 -36.1)" fill="#d1d1d1"/>
    </g>
  </g>
</svg>
