<?xml version="1.0" encoding="utf-8"?>
<!-- Generator: Adobe Illustrator 26.5.0, SVG Export Plug-In . SVG Version: 6.00 Build 0)  -->
<svg version="1.1" id="Layer_1" xmlns="http://www.w3.org/2000/svg" xmlns:xlink="http://www.w3.org/1999/xlink" x="0px" y="0px"
	 viewBox="0 0 180.4 33.1" style="enable-background:new 0 0 180.4 33.1;" xml:space="preserve">
<style type="text/css">
	.st0{fill:#FFFFFF;}
</style>
<g>
	<g>
		<polygon class="st0" points="2.7,0 0,0 0,14.7 10.4,14.7 10.4,12.4 2.7,12.4 		"/>
		<path class="st0" d="M20,4.1c-0.9-0.5-1.9-0.7-3.1-0.7c-1.1,0-2.2,0.2-3.1,0.7c-0.9,0.5-1.6,1.2-2.1,2c-0.5,0.9-0.8,1.8-0.8,3
			c0,1.1,0.3,2.1,0.8,3s1.2,1.6,2.1,2c0.9,0.5,1.9,0.7,3.1,0.7c1.1,0,2.2-0.2,3.1-0.7s1.6-1.2,2.1-2c0.5-0.9,0.8-1.9,0.8-3
			s-0.3-2.1-0.8-3C21.6,5.3,20.9,4.6,20,4.1z M19.8,11c-0.3,0.5-0.7,1-1.2,1.2s-1.1,0.4-1.7,0.4s-1.2-0.1-1.7-0.4S14.3,11.5,14,11
			s-0.4-1.2-0.4-1.9s0.1-1.3,0.4-1.9c0.3-0.5,0.7-0.9,1.2-1.2s1.1-0.4,1.7-0.4s1.2,0.1,1.7,0.4s0.9,0.7,1.2,1.2
			c0.3,0.5,0.4,1.1,0.4,1.9C20.2,9.8,20.1,10.4,19.8,11z"/>
		<path class="st0" d="M27.6,5.1V3.5h-2.5v11.2h2.6V9.3c0-1.2,0.3-2.1,0.9-2.6C29.2,6.1,30,5.8,31,5.8c0.1,0,0.2,0,0.3,0
			c0.1,0,0.2,0,0.3,0V3.3c-1,0-1.9,0.2-2.7,0.6C28.3,4.2,27.9,4.6,27.6,5.1z"/>
		<path class="st0" d="M41.1,4.1c-0.9-0.5-1.8-0.7-2.9-0.7c-1.1,0-2.1,0.2-3,0.7s-1.6,1.2-2.1,2c-0.5,0.9-0.7,1.9-0.7,3
			s0.3,2.1,0.8,3s1.2,1.5,2.2,2c0.9,0.5,2,0.7,3.3,0.7c1,0,1.9-0.2,2.6-0.5c0.8-0.3,1.4-0.8,1.9-1.3l-1.4-1.6
			c-0.4,0.4-0.8,0.7-1.3,0.9s-1.1,0.3-1.7,0.3c-0.7,0-1.4-0.1-2-0.4c-0.6-0.3-1-0.7-1.3-1.2c-0.2-0.3-0.3-0.7-0.4-1.1h8.8
			c0-0.1,0-0.2,0-0.4c0-0.1,0-0.3,0-0.4c0-1.2-0.2-2.2-0.7-3.1S42,4.5,41.1,4.1z M35.3,7.1c0.3-0.5,0.6-0.9,1.1-1.2s1.1-0.4,1.7-0.4
			c0.6,0,1.2,0.1,1.7,0.4S40.7,6.5,41,7c0.2,0.3,0.3,0.7,0.3,1.1H35C35.1,7.8,35.2,7.4,35.3,7.1z"/>
		<path class="st0" d="M62.5,3.9c-0.7-0.3-1.5-0.5-2.4-0.5c-1.1,0-2.1,0.3-2.9,0.8c-0.5,0.3-0.9,0.7-1.3,1.1c-0.3-0.5-0.6-0.9-1-1.1
			c-0.8-0.5-1.7-0.8-2.7-0.8c-0.9,0-1.8,0.2-2.5,0.6c-0.5,0.3-0.9,0.6-1.2,1V3.5H46v11.2h2.6V9c0-0.7,0.1-1.4,0.4-1.9s0.6-0.9,1-1.1
			s0.9-0.4,1.5-0.4c0.8,0,1.4,0.2,1.9,0.7c0.4,0.5,0.7,1.2,0.7,2.2v6.1h2.6V9c0-0.7,0.1-1.4,0.4-1.9s0.6-0.9,1-1.1s0.9-0.4,1.5-0.4
			c0.8,0,1.4,0.2,1.9,0.7c0.4,0.5,0.7,1.2,0.7,2.2v6.1h2.6V8.3c0-1.1-0.2-2.1-0.6-2.8C63.8,4.8,63.2,4.2,62.5,3.9z"/>
		<rect x="73.5" class="st0" width="2.7" height="14.7"/>
		<path class="st0" d="M88.7,4.1c-0.9-0.5-1.8-0.7-2.9-0.7c-0.9,0-1.8,0.2-2.5,0.6c-0.4,0.2-0.8,0.6-1.2,1V3.5h-2.5v15.3h2.6v-5.4
			c0.3,0.4,0.7,0.7,1.1,0.9c0.7,0.4,1.6,0.6,2.5,0.6c1.1,0,2.1-0.2,2.9-0.7s1.5-1.1,2-2s0.7-1.9,0.7-3s-0.2-2.2-0.7-3
			S89.5,4.5,88.7,4.1z M88.3,10.9c-0.3,0.5-0.7,0.9-1.2,1.2s-1.1,0.4-1.7,0.4s-1.2-0.1-1.7-0.4s-0.9-0.7-1.2-1.2s-0.4-1.1-0.4-1.8
			s0.1-1.3,0.4-1.9c0.3-0.5,0.7-0.9,1.2-1.2s1.1-0.4,1.7-0.4s1.2,0.1,1.7,0.4s0.9,0.7,1.2,1.2c0.3,0.5,0.4,1.1,0.4,1.9
			C88.8,9.8,88.6,10.4,88.3,10.9z"/>
		<path class="st0" d="M100.8,8.9c-0.4-0.2-0.9-0.4-1.4-0.5s-1-0.2-1.5-0.3c-0.5,0-0.9-0.1-1.3-0.2s-0.7-0.2-1-0.4
			c-0.3-0.2-0.4-0.4-0.4-0.8s0.2-0.7,0.6-0.9s1-0.3,1.8-0.3c0.5,0,1.1,0.1,1.6,0.2s1.1,0.3,1.6,0.6l1-2c-0.5-0.3-1.2-0.5-1.9-0.7
			c-0.8-0.2-1.5-0.3-2.3-0.3c-1,0-1.9,0.1-2.6,0.4s-1.3,0.7-1.7,1.2c-0.4,0.5-0.6,1.1-0.6,1.8s0.1,1.2,0.4,1.6
			c0.3,0.4,0.6,0.7,1,0.9s0.9,0.4,1.4,0.5s1,0.2,1.5,0.3s0.9,0.1,1.4,0.2s0.7,0.2,1,0.4s0.4,0.4,0.4,0.7c0,0.4-0.2,0.7-0.6,0.9
			s-1,0.3-1.8,0.3c-0.7,0-1.4-0.1-2.1-0.3s-1.3-0.5-1.8-0.8l-1,2c0.5,0.4,1.2,0.6,2.1,0.9c0.9,0.2,1.8,0.4,2.7,0.4
			c1,0,1.9-0.1,2.7-0.4c0.7-0.3,1.3-0.7,1.7-1.2c0.4-0.5,0.6-1.1,0.6-1.8c0-0.6-0.1-1.1-0.4-1.5C101.5,9.5,101.2,9.2,100.8,8.9z"/>
		<path class="st0" d="M112.3,9.2c0,0.7-0.1,1.4-0.4,1.9s-0.6,0.9-1.1,1.1s-1,0.4-1.6,0.4c-0.8,0-1.5-0.2-1.9-0.7
			c-0.5-0.5-0.7-1.2-0.7-2.2V3.5H104v6.4c0,1.1,0.2,2,0.6,2.8c0.4,0.7,1,1.3,1.7,1.6c0.7,0.4,1.6,0.5,2.5,0.5s1.7-0.2,2.4-0.6
			c0.5-0.3,0.9-0.6,1.2-1v1.4h2.5V3.5h-2.6V9.2z"/>
		<path class="st0" d="M134.5,3.9c-0.7-0.3-1.5-0.5-2.4-0.5c-1.1,0-2.1,0.3-2.9,0.8c-0.5,0.3-0.9,0.7-1.3,1.1
			c-0.3-0.5-0.6-0.9-1-1.1c-0.8-0.5-1.7-0.8-2.7-0.8c-0.9,0-1.8,0.2-2.5,0.6c-0.5,0.3-0.9,0.6-1.2,1V3.5H118v11.2h2.6V9
			c0-0.7,0.1-1.4,0.4-1.9s0.6-0.9,1-1.1s0.9-0.4,1.5-0.4c0.8,0,1.4,0.2,1.9,0.7c0.4,0.5,0.7,1.2,0.7,2.2v6.1h2.6V9
			c0-0.7,0.1-1.4,0.4-1.9c0.2-0.5,0.6-0.9,1-1.1c0.4-0.3,0.9-0.4,1.5-0.4c0.8,0,1.4,0.2,1.9,0.7c0.4,0.5,0.7,1.2,0.7,2.2v6.1h2.6
			V8.3c0-1.1-0.2-2.1-0.6-2.8C135.8,4.8,135.2,4.2,134.5,3.9z"/>
		<rect x="145.4" class="st0" width="2.7" height="14.7"/>
		<path class="st0" d="M160.3,3.9c-0.7-0.3-1.5-0.5-2.4-0.5c-1,0-1.8,0.2-2.6,0.6c-0.5,0.3-0.9,0.6-1.2,1V3.5h-2.5v11.2h2.6V9
			c0-0.8,0.1-1.4,0.4-1.9c0.3-0.5,0.6-0.9,1.1-1.1c0.5-0.3,1-0.4,1.6-0.4c0.9,0,1.5,0.2,2,0.7s0.7,1.2,0.7,2.2v6.1h2.6V8.3
			c0-1.1-0.2-2.1-0.6-2.8C161.5,4.8,161,4.2,160.3,3.9z"/>
		<path class="st0" d="M169,6c0.5-0.3,1.1-0.4,1.7-0.4c0.6,0,1.1,0.1,1.6,0.4s0.9,0.6,1.2,1.2l2-1.2c-0.4-0.9-1-1.5-1.9-2
			c-0.8-0.4-1.8-0.7-2.9-0.7c-1.2,0-2.2,0.2-3.1,0.7c-0.9,0.5-1.6,1.2-2.2,2c-0.5,0.9-0.8,1.8-0.8,3c0,1.1,0.3,2.1,0.8,3
			s1.2,1.5,2.2,2c0.9,0.5,2,0.7,3.1,0.7s2-0.2,2.9-0.7c0.8-0.5,1.5-1.1,1.9-1.9l-2-1.2c-0.3,0.5-0.7,0.9-1.2,1.2s-1,0.4-1.6,0.4
			s-1.2-0.1-1.7-0.4s-0.9-0.7-1.2-1.2s-0.4-1.2-0.4-1.9s0.1-1.3,0.4-1.9C168,6.7,168.4,6.3,169,6z"/>
		<path class="st0" d="M179.9,11.8c-0.3-0.3-0.7-0.5-1.2-0.5s-0.9,0.2-1.2,0.5S177,12.5,177,13s0.2,0.9,0.5,1.3
			c0.3,0.3,0.7,0.5,1.2,0.5s0.9-0.2,1.2-0.5s0.5-0.8,0.5-1.3C180.4,12.6,180.2,12.1,179.9,11.8z"/>
	</g>
	<g>
		<path class="st0" d="M6.7,22.8c-0.7-0.4-1.5-0.5-2.3-0.5H1v8.4h3.3c0.9,0,1.7-0.2,2.3-0.5s1.2-0.9,1.6-1.5
			c0.4-0.6,0.6-1.4,0.6-2.2c0-0.8-0.2-1.5-0.6-2.2S7.3,23.2,6.7,22.8z M7.7,28.4c-0.3,0.5-0.8,1-1.4,1.3S5,30.2,4.2,30.2H1.6v-7.3
			h2.7c0.8,0,1.5,0.2,2.1,0.5s1,0.7,1.4,1.3c0.3,0.5,0.5,1.2,0.5,1.9S8,27.8,7.7,28.4z"/>
		<path class="st0" d="M15,24.8c-0.5-0.3-1-0.4-1.5-0.4s-1.1,0.1-1.5,0.4c-0.5,0.3-0.8,0.6-1.1,1.1s-0.4,1-0.4,1.7
			c0,0.6,0.1,1.2,0.4,1.6c0.3,0.5,0.7,0.9,1.1,1.1c0.5,0.3,1,0.4,1.7,0.4c0.5,0,0.9-0.1,1.3-0.3s0.8-0.4,1-0.8l-0.3-0.4
			c-0.2,0.3-0.5,0.5-0.9,0.7c-0.3,0.1-0.7,0.2-1.1,0.2c-0.5,0-1-0.1-1.4-0.3c-0.4-0.2-0.7-0.5-0.9-0.9s-0.3-0.8-0.3-1.2h5.4v-0.1
			v-0.1c0-0.6-0.1-1.2-0.4-1.6C15.8,25.4,15.4,25,15,24.8z M11.3,26.1c0.2-0.4,0.5-0.7,0.9-0.9c0.4-0.2,0.8-0.3,1.2-0.3
			c0.5,0,0.9,0.1,1.2,0.3c0.4,0.2,0.6,0.5,0.9,0.9c0.2,0.3,0.3,0.7,0.3,1.1H11C11.1,26.8,11.2,26.5,11.3,26.1z"/>
		<path class="st0" d="M27.8,24.7c-0.4-0.2-0.8-0.3-1.3-0.3c-0.7,0-1.2,0.2-1.7,0.5c-0.4,0.3-0.6,0.6-0.8,1.1
			c-0.1-0.5-0.4-0.8-0.7-1.1c-0.4-0.3-1-0.5-1.6-0.5s-1.1,0.1-1.6,0.4c-0.4,0.3-0.7,0.6-0.8,1v-1.4h-0.6v6.3h0.6v-3.3
			c0-0.5,0.1-0.9,0.3-1.3c0.2-0.4,0.4-0.6,0.8-0.8c0.3-0.2,0.8-0.3,1.2-0.3c0.6,0,1.1,0.2,1.4,0.6s0.5,0.9,0.5,1.6v3.6h0.6v-3.3
			c0-0.5,0.1-0.9,0.3-1.3c0.2-0.4,0.4-0.6,0.8-0.8s0.8-0.3,1.2-0.3c0.6,0,1.1,0.2,1.4,0.6s0.5,0.9,0.5,1.6v3.6H29V27
			c0-0.6-0.1-1.1-0.3-1.5C28.5,25.2,28.2,24.9,27.8,24.7z"/>
		<path class="st0" d="M35.9,24.8c-0.5-0.3-1-0.4-1.6-0.4s-1.1,0.1-1.6,0.4s-0.8,0.6-1.1,1.1c-0.3,0.5-0.4,1-0.4,1.7
			c0,0.6,0.1,1.2,0.4,1.6c0.3,0.5,0.6,0.9,1.1,1.1c0.5,0.3,1,0.4,1.6,0.4s1.1-0.1,1.6-0.4s0.8-0.6,1.1-1.1s0.4-1,0.4-1.6
			s-0.1-1.2-0.4-1.7C36.7,25.4,36.4,25.1,35.9,24.8z M36.5,28.9c-0.2,0.4-0.5,0.7-0.9,0.9c-0.4,0.2-0.8,0.3-1.3,0.3S33.4,30,33,29.8
			c-0.4-0.2-0.7-0.5-0.9-0.9s-0.3-0.9-0.3-1.4s0.1-1,0.3-1.4c0.2-0.4,0.5-0.7,0.9-0.9c0.4-0.2,0.8-0.3,1.3-0.3s0.9,0.1,1.3,0.3
			c0.4,0.2,0.7,0.5,0.9,0.9s0.3,0.9,0.3,1.4C36.8,28.1,36.7,28.5,36.5,28.9z"/>
		<path class="st0" d="M44.2,23.8c0.3-0.3,0.7-0.6,1.2-0.8c0.5-0.2,1-0.3,1.5-0.3s1,0.1,1.4,0.2c0.4,0.2,0.8,0.4,1.2,0.8l0.4-0.4
			c-0.4-0.4-0.8-0.7-1.3-0.9c-0.5-0.2-1.1-0.3-1.7-0.3c-0.6,0-1.2,0.1-1.7,0.3s-1,0.5-1.4,0.9s-0.7,0.8-0.9,1.3s-0.3,1.1-0.3,1.7
			s0.1,1.2,0.3,1.7s0.5,1,0.9,1.3c0.4,0.4,0.9,0.7,1.4,0.9c0.5,0.2,1.1,0.3,1.7,0.3c0.6,0,1.1-0.1,1.7-0.3c0.5-0.2,1-0.5,1.3-0.9
			l-0.4-0.4c-0.4,0.4-0.8,0.6-1.2,0.8c-0.4,0.2-0.9,0.2-1.4,0.2s-1-0.1-1.5-0.3c-0.5-0.2-0.9-0.4-1.2-0.8c-0.3-0.3-0.6-0.7-0.8-1.2
			c-0.2-0.4-0.3-0.9-0.3-1.5c0-0.5,0.1-1,0.3-1.5C43.6,24.6,43.9,24.2,44.2,23.8z"/>
		<path class="st0" d="M55.9,24.8c-0.5-0.3-1-0.4-1.6-0.4s-1.1,0.1-1.6,0.4s-0.8,0.6-1.1,1.1s-0.4,1-0.4,1.7c0,0.6,0.1,1.2,0.4,1.6
			c0.3,0.5,0.6,0.9,1.1,1.1c0.5,0.3,1,0.4,1.6,0.4s1.1-0.1,1.6-0.4s0.8-0.6,1.1-1.1s0.4-1,0.4-1.6s-0.1-1.2-0.4-1.7
			C56.8,25.4,56.4,25.1,55.9,24.8z M56.5,28.9c-0.2,0.4-0.5,0.7-0.9,0.9c-0.4,0.2-0.8,0.3-1.3,0.3S53.4,30,53,29.8
			c-0.4-0.2-0.7-0.5-0.9-0.9s-0.3-0.9-0.3-1.4s0.1-1,0.3-1.4s0.5-0.7,0.9-0.9c0.4-0.2,0.8-0.3,1.3-0.3s0.9,0.1,1.3,0.3
			c0.4,0.2,0.7,0.5,0.9,0.9s0.3,0.9,0.3,1.4C56.8,28.1,56.7,28.5,56.5,28.9z"/>
		<path class="st0" d="M68.8,24.7c-0.4-0.2-0.8-0.3-1.3-0.3c-0.7,0-1.2,0.2-1.7,0.5c-0.4,0.3-0.6,0.6-0.8,1.1
			c-0.1-0.5-0.4-0.8-0.7-1.1c-0.4-0.3-1-0.5-1.6-0.5s-1.1,0.1-1.6,0.4c-0.4,0.3-0.7,0.6-0.8,1v-1.4h-0.6v6.3h0.6v-3.3
			c0-0.5,0.1-0.9,0.3-1.3s0.4-0.6,0.8-0.8c0.3-0.2,0.8-0.3,1.2-0.3c0.6,0,1.1,0.2,1.4,0.6s0.5,0.9,0.5,1.6v3.6h0.6v-3.3
			c0-0.5,0.1-0.9,0.3-1.3c0.2-0.4,0.4-0.6,0.8-0.8s0.8-0.3,1.2-0.3c0.6,0,1.1,0.2,1.4,0.6s0.5,0.9,0.5,1.6v3.6H70V27
			c0-0.6-0.1-1.1-0.3-1.5C69.5,25.2,69.2,24.9,68.8,24.7z"/>
		<path class="st0" d="M77.6,24.8c-0.5-0.3-1-0.4-1.6-0.4s-1,0.1-1.5,0.4s-0.8,0.6-1.1,1.1l0,0v-1.5h-0.6V33h0.6v-3.8
			c0.3,0.5,0.6,0.8,1,1.1c0.4,0.3,0.9,0.4,1.5,0.4s1.1-0.1,1.6-0.4s0.8-0.6,1.1-1.1c0.3-0.5,0.4-1,0.4-1.7s-0.1-1.2-0.4-1.7
			C78.4,25.4,78.1,25,77.6,24.8z M78.2,28.9c-0.2,0.4-0.5,0.7-0.9,0.9c-0.4,0.2-0.8,0.3-1.3,0.3s-0.9-0.1-1.3-0.3
			c-0.4-0.2-0.7-0.5-0.9-0.9c-0.2-0.4-0.3-0.9-0.3-1.4s0.1-1,0.3-1.4c0.2-0.4,0.5-0.7,0.9-0.9c0.4-0.2,0.8-0.3,1.3-0.3
			s0.9,0.1,1.3,0.3c0.4,0.2,0.7,0.5,0.9,0.9c0.2,0.4,0.3,0.9,0.3,1.4C78.5,28.1,78.4,28.5,78.2,28.9z"/>
		<path class="st0" d="M83.4,24.4c-0.5,0-0.9,0.1-1.4,0.2s-0.8,0.4-1.1,0.7l0.3,0.4c0.3-0.2,0.6-0.4,1-0.6c0.4-0.1,0.8-0.2,1.2-0.2
			c0.6,0,1.1,0.2,1.4,0.5s0.5,0.7,0.5,1.3v0.5h-2.1c-0.6,0-1,0.1-1.4,0.2s-0.6,0.4-0.7,0.6c-0.1,0.3-0.2,0.6-0.2,0.9
			c0,0.4,0.1,0.7,0.3,0.9c0.2,0.3,0.4,0.5,0.8,0.6s0.7,0.2,1.2,0.2c0.6,0,1.1-0.1,1.5-0.4c0.3-0.2,0.5-0.5,0.7-0.8v1.2H86v-4
			c0-0.8-0.2-1.4-0.6-1.8C84.8,24.6,84.2,24.4,83.4,24.4z M84.4,29.9c-0.4,0.2-0.8,0.4-1.3,0.4c-0.6,0-1-0.1-1.3-0.4
			c-0.3-0.2-0.5-0.6-0.5-1s0.1-0.7,0.4-0.9c0.3-0.2,0.7-0.4,1.4-0.4h2.1v1.2C85.1,29.3,84.8,29.6,84.4,29.9z"/>
		<path class="st0" d="M93.1,24.7c-0.4-0.2-0.8-0.3-1.3-0.3c-0.6,0-1.2,0.1-1.6,0.4s-0.7,0.6-0.9,1v-1.4h-0.6v6.3h0.6v-3.3
			c0-0.5,0.1-0.9,0.3-1.3c0.2-0.4,0.5-0.6,0.8-0.8c0.4-0.2,0.8-0.3,1.3-0.3c0.6,0,1.1,0.2,1.5,0.6s0.5,0.9,0.5,1.6v3.6h0.6V27
			c0-0.6-0.1-1.1-0.3-1.5C93.8,25.2,93.5,24.9,93.1,24.7z"/>
		<path class="st0" d="M101.5,24.4L99,30l-2.5-5.6h-0.6l2.8,6.2l-0.3,0.8c-0.2,0.4-0.4,0.7-0.6,0.9s-0.5,0.2-0.8,0.2
			c-0.2,0-0.5,0-0.6-0.1c-0.2-0.1-0.4-0.2-0.5-0.4l-0.3,0.5c0.2,0.2,0.4,0.3,0.6,0.4C96.5,33,96.7,33,97,33s0.5,0,0.8-0.1
			c0.2-0.1,0.4-0.3,0.6-0.5s0.4-0.5,0.5-0.9l3.2-7.1C102.1,24.4,101.5,24.4,101.5,24.4z"/>
	</g>
</g>
</svg>
